<?xml version="1.0" encoding="UTF-8" standalone="no"?>
<!-- Created with Inkscape (http://www.inkscape.org/) -->

<svg
   width="24"
   height="24"
   viewBox="0 0 6.3499999 6.35"
   version="1.1"
   id="svg1"
   xmlns="http://www.w3.org/2000/svg"
   xmlns:svg="http://www.w3.org/2000/svg">
  <defs
     id="defs1" />
  <g
     id="layer1">
    <path
       id="rect2"
       style="fill:#ffffff;stroke-width:0.0658813"
       d="M 2.6449376,3.8818388 4.7657222,1.7610542 c 0.098083,-0.098083 0.2560065,-0.098083 0.3540892,1e-7 l 0.3530175,0.3530176 c 0.098083,0.098083 0.098083,0.2560064 1e-7,0.3540891 L 3.3520444,4.5889456 c -0.098083,0.098083 -0.2560065,0.098083 -0.3540892,0 L 2.6449376,4.235928 c -0.098083,-0.098083 -0.098083,-0.2560065 0,-0.3540892 z m -1.06066,-2.1207844 2.1207845,2.1207845 c 0.098083,0.098083 0.098083,0.2560065 10e-8,0.3540892 L 3.3520446,4.5889457 c -0.098083,0.098083 -0.2560066,0.098083 -0.3540893,0 L 0.87717085,2.4681612 c -0.0980827,-0.098083 -0.0980827,-0.2560065 0,-0.3540892 L 1.2301884,1.7610544 c 0.098083,-0.098083 0.2560065,-0.098083 0.3540892,0 z" />
  </g>
</svg>
